<svg xmlns="http://www.w3.org/2000/svg" viewBox="0 0 32 32">
  <rect x="3" y="5" width="20" height="17" rx="2" fill="#F5F7FA" stroke="#3B6EA5" stroke-width="2"/>
  <circle cx="9" cy="11" r="2" fill="#3B6EA5"/>
  <path d="M5 20 L10.5 13.5 L14 17 L18 12 L21 20 Z" fill="#3B6EA5"/>
  <circle cx="24" cy="23" r="8" fill="#FFFFFF"/>
  <path d="M28.6 22.4L23.6 17.4V16a1 1 0 0 0-1-1H17a1 1 0 0 0-1 1v5.6a1 1 0 0 0 .3.7l5.6 5.6a2 2 0 0 0 2.8 0l3.9-3.9a2 2 0 0 0 0-2.6zM20 20.5a1.5 1.5 0 1 1 0-3 1.5 1.5 0 0 1 0 3z" fill="#E2A83B"/>
</svg>
